<svg xmlns="http://www.w3.org/2000/svg" xmlns:xlink="http://www.w3.org/1999/xlink" width="500" zoomAndPan="magnify" viewBox="0 0 375 91.5" height="122" preserveAspectRatio="xMidYMid meet" version="1.0"><defs><g/><clipPath id="395b09f3ee"><path d="M 53.425781 30.335938 L 92.214844 30.335938 L 92.214844 60.917969 L 53.425781 60.917969 Z M 53.425781 30.335938 " clip-rule="nonzero"/></clipPath></defs><g clip-path="url(#395b09f3ee)"><path fill="#3583f8" d="M 70.90625 36.964844 C 71.285156 36.210938 71.550781 35.609375 71.875 35.042969 C 73.148438 32.84375 74.871094 31.203125 77.429688 30.777344 C 79.515625 30.429688 81.535156 30.789062 83.414062 31.804688 C 85.894531 33.140625 87.324219 35.289062 87.886719 38.039062 C 88.335938 40.230469 88.09375 42.394531 87.402344 44.511719 C 87.324219 44.75 87.21875 44.976562 87.113281 45.246094 C 84.074219 45.246094 81.058594 45.246094 77.929688 45.246094 C 77.714844 44.839844 77.460938 44.375 77.222656 43.902344 C 76.878906 43.226562 76.535156 42.550781 76.214844 41.863281 C 75.945312 41.277344 75.566406 40.808594 74.886719 40.855469 C 74.222656 40.898438 73.875 41.355469 73.652344 41.984375 C 73.042969 43.714844 72.386719 45.429688 71.75 47.148438 C 71.695312 47.296875 71.628906 47.4375 71.519531 47.703125 C 71.386719 47.449219 71.277344 47.285156 71.21875 47.105469 C 70.449219 44.761719 69.6875 42.414062 68.925781 40.066406 C 68.875 39.914062 68.84375 39.761719 68.785156 39.613281 C 68.570312 39.070312 68.199219 38.691406 67.601562 38.6875 C 67.019531 38.683594 66.605469 38.996094 66.382812 39.554688 C 65.824219 40.964844 65.265625 42.375 64.699219 43.785156 C 64.511719 44.253906 64.316406 44.71875 64.078125 45.292969 C 63.726562 45.292969 63.359375 45.292969 62.992188 45.292969 C 62.089844 45.292969 61.183594 45.269531 60.28125 45.308594 C 59.558594 45.335938 59.109375 45.835938 59.09375 46.519531 C 59.078125 47.167969 59.472656 47.675781 60.113281 47.808594 C 60.292969 47.84375 60.484375 47.839844 60.671875 47.839844 C 62.011719 47.84375 63.351562 47.824219 64.695312 47.847656 C 65.492188 47.863281 65.976562 47.511719 66.253906 46.761719 C 66.609375 45.816406 67 44.886719 67.445312 43.773438 C 67.636719 44.335938 67.78125 44.730469 67.914062 45.128906 C 68.65625 47.417969 69.398438 49.703125 70.136719 51.992188 C 70.324219 52.582031 70.632812 53.011719 71.300781 53.050781 C 71.957031 53.089844 72.359375 52.828125 72.636719 52.101562 C 73.152344 50.742188 73.640625 49.371094 74.144531 48.007812 C 74.449219 47.175781 74.753906 46.347656 75.113281 45.378906 C 75.363281 45.878906 75.589844 46.246094 75.738281 46.640625 C 76.070312 47.539062 76.675781 47.863281 77.617188 47.855469 C 81.890625 47.824219 86.160156 47.839844 90.433594 47.84375 C 90.746094 47.84375 91.0625 47.824219 91.367188 47.867188 C 91.851562 47.929688 92.1875 48.320312 92.191406 48.757812 C 92.195312 49.1875 91.859375 49.585938 91.382812 49.667969 C 91.140625 49.710938 90.886719 49.691406 90.636719 49.691406 C 88.859375 49.695312 87.082031 49.699219 85.304688 49.691406 C 84.90625 49.6875 84.613281 49.777344 84.34375 50.125 C 81.519531 53.796875 77.976562 56.625 74.125 59.085938 C 73.253906 59.644531 72.347656 60.140625 71.464844 60.675781 C 71.113281 60.886719 70.796875 60.917969 70.421875 60.703125 C 65.675781 58.011719 61.292969 54.855469 57.8125 50.542969 C 55.992188 48.285156 54.589844 45.792969 54.007812 42.894531 C 53.441406 40.0625 53.667969 37.316406 55.210938 34.824219 C 56.78125 32.285156 59.160156 31.023438 62.042969 30.714844 C 65.621094 30.332031 68.164062 31.960938 69.953125 35.007812 C 70.125 35.308594 70.273438 35.625 70.425781 35.9375 C 70.5625 36.21875 70.691406 36.503906 70.90625 36.964844 Z M 70.90625 36.964844 " fill-opacity="1" fill-rule="nonzero"/></g><g fill="#1e2124" fill-opacity="1"><g transform="translate(110.067393, 55.136649)"><g><path d="M 14.6875 -11.8125 L 14.6875 -18.921875 L 18.40625 -18.921875 L 18.40625 0 L 14.6875 0 L 14.6875 -8.625 L 6.203125 -8.625 L 6.203125 0 L 2.453125 0 L 2.453125 -18.921875 L 6.203125 -18.921875 L 6.203125 -11.8125 Z M 14.6875 -11.8125 "/></g></g></g><g fill="#1e2124" fill-opacity="1"><g transform="translate(130.950751, 55.136649)"><g><path d="M 14.109375 -6.328125 L 4.9375 -6.328125 C 5.039062 -5.085938 5.394531 -4.179688 6 -3.609375 C 6.601562 -3.046875 7.425781 -2.765625 8.46875 -2.765625 C 9.289062 -2.765625 9.953125 -2.914062 10.453125 -3.21875 C 10.960938 -3.53125 11.375 -4 11.6875 -4.625 L 11.96875 -4.625 L 14.34375 -3.09375 C 13.875 -2.09375 13.171875 -1.28125 12.234375 -0.65625 C 11.296875 -0.0390625 10.039062 0.265625 8.46875 0.265625 C 6.988281 0.265625 5.710938 -0.0078125 4.640625 -0.5625 C 3.566406 -1.125 2.738281 -1.957031 2.15625 -3.0625 C 1.570312 -4.175781 1.28125 -5.535156 1.28125 -7.140625 C 1.28125 -8.753906 1.585938 -10.117188 2.203125 -11.234375 C 2.816406 -12.347656 3.644531 -13.175781 4.6875 -13.71875 C 5.726562 -14.269531 6.898438 -14.546875 8.203125 -14.546875 C 10.222656 -14.546875 11.769531 -14.007812 12.84375 -12.9375 C 13.925781 -11.875 14.46875 -10.304688 14.46875 -8.234375 C 14.46875 -7.484375 14.441406 -6.898438 14.390625 -6.484375 Z M 11.03125 -8.65625 C 11 -9.738281 10.742188 -10.523438 10.265625 -11.015625 C 9.796875 -11.515625 9.109375 -11.765625 8.203125 -11.765625 C 6.390625 -11.765625 5.328125 -10.726562 5.015625 -8.65625 Z M 11.03125 -8.65625 "/></g></g></g><g fill="#1e2124" fill-opacity="1"><g transform="translate(146.47409, 55.136649)"><g><path d="M 5.5625 0.265625 C 4.644531 0.265625 3.847656 0.0976562 3.171875 -0.234375 C 2.503906 -0.566406 1.988281 -1.054688 1.625 -1.703125 C 1.269531 -2.359375 1.09375 -3.144531 1.09375 -4.0625 C 1.09375 -4.90625 1.269531 -5.613281 1.625 -6.1875 C 1.988281 -6.769531 2.550781 -7.242188 3.3125 -7.609375 C 4.070312 -7.972656 5.066406 -8.253906 6.296875 -8.453125 C 7.148438 -8.585938 7.796875 -8.738281 8.234375 -8.90625 C 8.679688 -9.070312 8.984375 -9.257812 9.140625 -9.46875 C 9.296875 -9.675781 9.375 -9.9375 9.375 -10.25 C 9.375 -10.707031 9.210938 -11.054688 8.890625 -11.296875 C 8.578125 -11.546875 8.046875 -11.671875 7.296875 -11.671875 C 6.503906 -11.671875 5.75 -11.492188 5.03125 -11.140625 C 4.320312 -10.785156 3.703125 -10.316406 3.171875 -9.734375 L 2.90625 -9.734375 L 1.40625 -12 C 2.132812 -12.800781 3.019531 -13.425781 4.0625 -13.875 C 5.101562 -14.320312 6.242188 -14.546875 7.484375 -14.546875 C 9.367188 -14.546875 10.734375 -14.144531 11.578125 -13.34375 C 12.429688 -12.539062 12.859375 -11.40625 12.859375 -9.9375 L 12.859375 -3.734375 C 12.859375 -3.085938 13.140625 -2.765625 13.703125 -2.765625 C 13.910156 -2.765625 14.117188 -2.804688 14.328125 -2.890625 L 14.515625 -2.828125 L 14.765625 -0.34375 C 14.566406 -0.207031 14.289062 -0.0976562 13.9375 -0.015625 C 13.582031 0.0664062 13.195312 0.109375 12.78125 0.109375 C 11.925781 0.109375 11.257812 -0.0507812 10.78125 -0.375 C 10.300781 -0.707031 9.957031 -1.222656 9.75 -1.921875 L 9.484375 -1.953125 C 8.773438 -0.472656 7.46875 0.265625 5.5625 0.265625 Z M 6.703125 -2.40625 C 7.535156 -2.40625 8.195312 -2.679688 8.6875 -3.234375 C 9.1875 -3.796875 9.4375 -4.570312 9.4375 -5.5625 L 9.4375 -7.015625 L 9.1875 -7.0625 C 8.976562 -6.894531 8.695312 -6.75 8.34375 -6.625 C 7.988281 -6.507812 7.488281 -6.398438 6.84375 -6.296875 C 6.0625 -6.160156 5.5 -5.9375 5.15625 -5.625 C 4.8125 -5.3125 4.640625 -4.863281 4.640625 -4.28125 C 4.640625 -3.664062 4.820312 -3.195312 5.1875 -2.875 C 5.550781 -2.5625 6.054688 -2.40625 6.703125 -2.40625 Z M 6.703125 -2.40625 "/></g></g></g><g fill="#1e2124" fill-opacity="1"><g transform="translate(161.53134, 55.136649)"><g><path d="M 5.9375 0.265625 C 4.644531 0.265625 3.660156 -0.078125 2.984375 -0.765625 C 2.304688 -1.460938 1.96875 -2.519531 1.96875 -3.9375 L 1.96875 -20.015625 L 5.546875 -20.015625 L 5.546875 -4.078125 C 5.546875 -3.203125 5.910156 -2.765625 6.640625 -2.765625 C 6.847656 -2.765625 7.066406 -2.800781 7.296875 -2.875 L 7.484375 -2.828125 L 7.8125 -0.0625 C 7.613281 0.0390625 7.347656 0.117188 7.015625 0.171875 C 6.691406 0.234375 6.332031 0.265625 5.9375 0.265625 Z M 5.9375 0.265625 "/></g></g></g><g fill="#1e2124" fill-opacity="1"><g transform="translate(169.739678, 55.136649)"><g><path d="M 9.859375 -3.40625 L 10.78125 -0.75 C 10.394531 -0.425781 9.90625 -0.175781 9.3125 0 C 8.726562 0.175781 8.066406 0.265625 7.328125 0.265625 C 5.785156 0.265625 4.613281 -0.148438 3.8125 -0.984375 C 3.007812 -1.828125 2.609375 -3.050781 2.609375 -4.65625 L 2.609375 -11.4375 L 0.421875 -11.4375 L 0.421875 -14.296875 L 2.609375 -14.296875 L 2.609375 -17.078125 L 6.1875 -17.65625 L 6.1875 -14.296875 L 10.234375 -14.296875 L 10.234375 -11.4375 L 6.1875 -11.4375 L 6.1875 -4.921875 C 6.1875 -4.210938 6.332031 -3.695312 6.625 -3.375 C 6.914062 -3.050781 7.34375 -2.890625 7.90625 -2.890625 C 8.550781 -2.890625 9.109375 -3.0625 9.578125 -3.40625 Z M 9.859375 -3.40625 "/></g></g></g><g fill="#1e2124" fill-opacity="1"><g transform="translate(180.835176, 55.136649)"><g><path d="M 2.0625 0 L 2.0625 -20.015625 L 5.640625 -20.015625 L 5.640625 -12.421875 L 5.921875 -12.359375 C 6.390625 -13.054688 6.96875 -13.59375 7.65625 -13.96875 C 8.351562 -14.351562 9.1875 -14.546875 10.15625 -14.546875 C 13.3125 -14.546875 14.890625 -12.757812 14.890625 -9.1875 L 14.890625 0 L 11.296875 0 L 11.296875 -8.734375 C 11.296875 -9.710938 11.101562 -10.421875 10.71875 -10.859375 C 10.332031 -11.296875 9.726562 -11.515625 8.90625 -11.515625 C 7.90625 -11.515625 7.109375 -11.179688 6.515625 -10.515625 C 5.929688 -9.847656 5.640625 -8.804688 5.640625 -7.390625 L 5.640625 0 Z M 2.0625 0 "/></g></g></g><g fill="#1e2124" fill-opacity="1"><g transform="translate(197.562577, 55.136649)"><g><path d="M 3.15625 6.0625 C 2.539062 6.0625 1.984375 6.015625 1.484375 5.921875 C 0.992188 5.828125 0.59375 5.703125 0.28125 5.546875 L 0.859375 2.640625 L 1.09375 2.5625 C 1.300781 2.675781 1.566406 2.765625 1.890625 2.828125 C 2.210938 2.898438 2.539062 2.9375 2.875 2.9375 C 3.445312 2.9375 3.925781 2.859375 4.3125 2.703125 C 4.695312 2.554688 5.023438 2.304688 5.296875 1.953125 C 5.566406 1.609375 5.800781 1.125 6 0.5 L 0.3125 -14.28125 L 4.0625 -14.28125 L 7.609375 -4.34375 L 7.921875 -4.34375 L 11.375 -14.28125 L 15.03125 -14.28125 L 9.296875 0.890625 C 8.835938 2.117188 8.332031 3.101562 7.78125 3.84375 C 7.238281 4.59375 6.59375 5.148438 5.84375 5.515625 C 5.09375 5.878906 4.195312 6.0625 3.15625 6.0625 Z M 3.15625 6.0625 "/></g></g></g><g fill="#1e2124" fill-opacity="1"><g transform="translate(212.884447, 55.136649)"><g><path d="M 10.46875 0.265625 C 8.800781 0.265625 7.320312 -0.109375 6.03125 -0.859375 C 4.738281 -1.617188 3.722656 -2.726562 2.984375 -4.1875 C 2.253906 -5.65625 1.890625 -7.414062 1.890625 -9.46875 C 1.890625 -11.507812 2.253906 -13.257812 2.984375 -14.71875 C 3.722656 -16.1875 4.738281 -17.300781 6.03125 -18.0625 C 7.320312 -18.820312 8.800781 -19.203125 10.46875 -19.203125 C 12.226562 -19.203125 13.695312 -18.863281 14.875 -18.1875 C 16.050781 -17.519531 16.894531 -16.515625 17.40625 -15.171875 L 15.984375 -14.234375 L 15.671875 -14.234375 C 15.148438 -15.304688 14.472656 -16.066406 13.640625 -16.515625 C 12.816406 -16.972656 11.757812 -17.203125 10.46875 -17.203125 C 9.269531 -17.203125 8.207031 -16.9375 7.28125 -16.40625 C 6.363281 -15.875 5.628906 -15.03125 5.078125 -13.875 C 4.535156 -12.726562 4.265625 -11.257812 4.265625 -9.46875 C 4.265625 -7.664062 4.535156 -6.191406 5.078125 -5.046875 C 5.628906 -3.898438 6.363281 -3.0625 7.28125 -2.53125 C 8.207031 -2 9.269531 -1.734375 10.46875 -1.734375 C 11.832031 -1.734375 12.953125 -2.039062 13.828125 -2.65625 C 14.703125 -3.28125 15.347656 -4.28125 15.765625 -5.65625 L 16.09375 -5.65625 L 17.578125 -4.921875 C 17.128906 -3.242188 16.296875 -1.957031 15.078125 -1.0625 C 13.867188 -0.175781 12.332031 0.265625 10.46875 0.265625 Z M 10.46875 0.265625 "/></g></g></g><g fill="#1e2124" fill-opacity="1"><g transform="translate(231.450308, 55.136649)"><g><path d="M 8.203125 0.265625 C 6.847656 0.265625 5.671875 -0.015625 4.671875 -0.578125 C 3.679688 -1.148438 2.914062 -1.988281 2.375 -3.09375 C 1.832031 -4.207031 1.5625 -5.554688 1.5625 -7.140625 C 1.5625 -8.710938 1.832031 -10.054688 2.375 -11.171875 C 2.914062 -12.285156 3.679688 -13.125 4.671875 -13.6875 C 5.671875 -14.257812 6.847656 -14.546875 8.203125 -14.546875 C 9.546875 -14.546875 10.710938 -14.257812 11.703125 -13.6875 C 12.703125 -13.125 13.472656 -12.285156 14.015625 -11.171875 C 14.554688 -10.054688 14.828125 -8.710938 14.828125 -7.140625 C 14.828125 -5.554688 14.554688 -4.207031 14.015625 -3.09375 C 13.472656 -1.988281 12.703125 -1.148438 11.703125 -0.578125 C 10.710938 -0.015625 9.546875 0.265625 8.203125 0.265625 Z M 8.203125 -1.625 C 9.617188 -1.625 10.703125 -2.070312 11.453125 -2.96875 C 12.210938 -3.863281 12.59375 -5.253906 12.59375 -7.140625 C 12.59375 -9.023438 12.210938 -10.414062 11.453125 -11.3125 C 10.703125 -12.207031 9.617188 -12.65625 8.203125 -12.65625 C 6.773438 -12.65625 5.679688 -12.203125 4.921875 -11.296875 C 4.160156 -10.398438 3.78125 -9.015625 3.78125 -7.140625 C 3.78125 -5.253906 4.160156 -3.863281 4.921875 -2.96875 C 5.679688 -2.070312 6.773438 -1.625 8.203125 -1.625 Z M 8.203125 -1.625 "/></g></g></g><g fill="#1e2124" fill-opacity="1"><g transform="translate(247.84109, 55.136649)"><g><path d="M 2.484375 0 L 2.484375 -14.28125 L 4.5 -14.28125 L 4.5 -12.046875 L 4.765625 -11.96875 C 5.242188 -12.8125 5.847656 -13.453125 6.578125 -13.890625 C 7.316406 -14.328125 8.21875 -14.546875 9.28125 -14.546875 C 11 -14.546875 12.242188 -14.109375 13.015625 -13.234375 C 13.785156 -12.359375 14.171875 -11.007812 14.171875 -9.1875 L 14.171875 0 L 12.0625 0 L 12.0625 -9.140625 C 12.0625 -10.003906 11.953125 -10.695312 11.734375 -11.21875 C 11.515625 -11.738281 11.171875 -12.117188 10.703125 -12.359375 C 10.242188 -12.597656 9.640625 -12.71875 8.890625 -12.71875 C 7.609375 -12.71875 6.570312 -12.289062 5.78125 -11.4375 C 4.988281 -10.582031 4.59375 -9.210938 4.59375 -7.328125 L 4.59375 0 Z M 2.484375 0 "/></g></g></g><g fill="#1e2124" fill-opacity="1"><g transform="translate(264.283659, 55.136649)"><g><path d="M 2.484375 0 L 2.484375 -14.28125 L 4.5 -14.28125 L 4.5 -12.046875 L 4.765625 -11.96875 C 5.242188 -12.8125 5.847656 -13.453125 6.578125 -13.890625 C 7.316406 -14.328125 8.21875 -14.546875 9.28125 -14.546875 C 11 -14.546875 12.242188 -14.109375 13.015625 -13.234375 C 13.785156 -12.359375 14.171875 -11.007812 14.171875 -9.1875 L 14.171875 0 L 12.0625 0 L 12.0625 -9.140625 C 12.0625 -10.003906 11.953125 -10.695312 11.734375 -11.21875 C 11.515625 -11.738281 11.171875 -12.117188 10.703125 -12.359375 C 10.242188 -12.597656 9.640625 -12.71875 8.890625 -12.71875 C 7.609375 -12.71875 6.570312 -12.289062 5.78125 -11.4375 C 4.988281 -10.582031 4.59375 -9.210938 4.59375 -7.328125 L 4.59375 0 Z M 2.484375 0 "/></g></g></g><g fill="#1e2124" fill-opacity="1"><g transform="translate(280.726229, 55.136649)"><g><path d="M 13.609375 -6.65625 L 3.796875 -6.65625 C 3.859375 -4.914062 4.273438 -3.640625 5.046875 -2.828125 C 5.816406 -2.023438 6.875 -1.625 8.21875 -1.625 C 9.238281 -1.625 10.054688 -1.800781 10.671875 -2.15625 C 11.296875 -2.519531 11.785156 -3.09375 12.140625 -3.875 L 12.421875 -3.875 L 13.78125 -3.0625 C 13.375 -2.019531 12.710938 -1.203125 11.796875 -0.609375 C 10.890625 -0.0234375 9.695312 0.265625 8.21875 0.265625 C 6.84375 0.265625 5.65625 -0.00390625 4.65625 -0.546875 C 3.664062 -1.085938 2.898438 -1.910156 2.359375 -3.015625 C 1.828125 -4.117188 1.5625 -5.492188 1.5625 -7.140625 C 1.5625 -8.753906 1.84375 -10.117188 2.40625 -11.234375 C 2.976562 -12.347656 3.753906 -13.175781 4.734375 -13.71875 C 5.710938 -14.269531 6.832031 -14.546875 8.09375 -14.546875 C 9.925781 -14.546875 11.351562 -14.03125 12.375 -13 C 13.40625 -11.96875 13.925781 -10.441406 13.9375 -8.421875 C 13.9375 -7.617188 13.914062 -7.082031 13.875 -6.8125 Z M 11.84375 -8.421875 C 11.8125 -9.929688 11.472656 -11.03125 10.828125 -11.71875 C 10.191406 -12.414062 9.28125 -12.765625 8.09375 -12.765625 C 6.84375 -12.765625 5.859375 -12.414062 5.140625 -11.71875 C 4.429688 -11.03125 4 -9.929688 3.84375 -8.421875 Z M 11.84375 -8.421875 "/></g></g></g><g fill="#1e2124" fill-opacity="1"><g transform="translate(295.951789, 55.136649)"><g><path d="M 8.203125 0.265625 C 6.941406 0.265625 5.804688 -0.0195312 4.796875 -0.59375 C 3.796875 -1.164062 3.003906 -2.007812 2.421875 -3.125 C 1.847656 -4.238281 1.5625 -5.578125 1.5625 -7.140625 C 1.5625 -8.703125 1.847656 -10.039062 2.421875 -11.15625 C 3.003906 -12.269531 3.796875 -13.113281 4.796875 -13.6875 C 5.804688 -14.257812 6.941406 -14.546875 8.203125 -14.546875 C 9.710938 -14.546875 10.910156 -14.257812 11.796875 -13.6875 C 12.691406 -13.125 13.335938 -12.367188 13.734375 -11.421875 L 12.296875 -10.390625 L 12.046875 -10.390625 C 11.648438 -11.171875 11.144531 -11.742188 10.53125 -12.109375 C 9.925781 -12.472656 9.148438 -12.65625 8.203125 -12.65625 C 7.316406 -12.65625 6.539062 -12.445312 5.875 -12.03125 C 5.207031 -11.625 4.691406 -11.003906 4.328125 -10.171875 C 3.960938 -9.347656 3.78125 -8.335938 3.78125 -7.140625 C 3.78125 -5.941406 3.960938 -4.929688 4.328125 -4.109375 C 4.703125 -3.285156 5.21875 -2.664062 5.875 -2.25 C 6.539062 -1.832031 7.316406 -1.625 8.203125 -1.625 C 9.191406 -1.625 10.007812 -1.847656 10.65625 -2.296875 C 11.3125 -2.742188 11.828125 -3.453125 12.203125 -4.421875 L 12.46875 -4.421875 L 13.859375 -3.59375 C 13.484375 -2.394531 12.816406 -1.453125 11.859375 -0.765625 C 10.910156 -0.078125 9.691406 0.265625 8.203125 0.265625 Z M 8.203125 0.265625 "/></g></g></g><g fill="#1e2124" fill-opacity="1"><g transform="translate(310.67242, 55.136649)"><g><path d="M 9.65625 -2.265625 L 10.328125 -0.75 C 9.992188 -0.414062 9.550781 -0.164062 9 0 C 8.457031 0.175781 7.863281 0.265625 7.21875 0.265625 C 4.5 0.265625 3.140625 -1.113281 3.140625 -3.875 L 3.140625 -12.5625 L 0.640625 -12.5625 L 0.640625 -14.296875 L 3.140625 -14.296875 L 3.140625 -17.3125 L 5.25 -17.65625 L 5.25 -14.296875 L 9.84375 -14.296875 L 9.84375 -12.5625 L 5.25 -12.5625 L 5.25 -4.078125 C 5.25 -2.441406 5.957031 -1.625 7.375 -1.625 C 8.15625 -1.625 8.828125 -1.835938 9.390625 -2.265625 Z M 9.65625 -2.265625 "/></g></g></g></svg>